HIERARCHY
ROOT RootJoint
{
    OFFSET   0.000000   0.000000   0.000000
    CHANNELS 6 Xposition Yposition Zposition Xrotation Yrotation Zrotation
    JOINT pelvis_lowerback
    {
        OFFSET   0.000000   0.093605   0.000000
        CHANNELS 3 Xrotation Yrotation Zrotation
        JOINT lowerback_torso
        {
            OFFSET   0.000000   0.100000   0.000000
            CHANNELS 3 Xrotation Yrotation Zrotation
            JOINT torso_head
            {
                OFFSET   0.000000   0.282350   0.000000
                CHANNELS 3 Xrotation Yrotation Zrotation
                End Site
                {
                    OFFSET   0.000000   0.192650   0.000000
                }
            }
            JOINT rTorso_Clavicle
            {
                OFFSET  -0.001000   0.157500   0.000000
                CHANNELS 3 Xrotation Yrotation Zrotation
                JOINT rShoulder
                {
                    OFFSET  -0.117647   0.000000   0.000000
                    CHANNELS 3 Xrotation Yrotation Zrotation
                    JOINT rElbow
                    {
                        OFFSET  -0.245000   0.000000   0.000000
                        CHANNELS 3 Xrotation Yrotation Zrotation
                        JOINT rWrist
                        {
                            OFFSET  -0.240000   0.000000   0.000000
                            CHANNELS 3 Xrotation Yrotation Zrotation
                            End Site
                            {
                                OFFSET  -0.116353  -0.002500   0.000000
                            }
                        }
                    }
                }
            }
            JOINT lTorso_Clavicle
            {
                OFFSET   0.001000   0.157500   0.000000
                CHANNELS 3 Xrotation Yrotation Zrotation
                JOINT lShoulder
                {
                    OFFSET   0.117647   0.000000   0.000000
                    CHANNELS 3 Xrotation Yrotation Zrotation
                    JOINT lElbow
                    {
                        OFFSET   0.245000   0.000000   0.000000
                        CHANNELS 3 Xrotation Yrotation Zrotation
                        JOINT lWrist
                        {
                            OFFSET   0.240000   0.000000   0.000000
                            CHANNELS 3 Xrotation Yrotation Zrotation
                            End Site
                            {
                                OFFSET   0.116353  -0.002500   0.000000
                            }
                        }
                    }
                }
            }
        }
    }
    JOINT rHip
    {
        OFFSET  -0.100000  -0.051395   0.000000
        CHANNELS 3 Xrotation Yrotation Zrotation
        JOINT rKnee
        {
            OFFSET   0.000000  -0.410000   0.000000
            CHANNELS 3 Xrotation Yrotation Zrotation
            JOINT rAnkle
            {
                OFFSET   0.000000  -0.390000   0.000000
                CHANNELS 3 Xrotation Yrotation Zrotation
                JOINT rToeJoint
                {
                    OFFSET   0.000000  -0.050000   0.130000
                    CHANNELS 3 Xrotation Yrotation Zrotation
                    End Site
                    {
                        OFFSET  -0.010000   0.002000   0.060000
                    }
                }
            }
        }
    }
    JOINT lHip
    {
        OFFSET   0.100000  -0.051395   0.000000
        CHANNELS 3 Xrotation Yrotation Zrotation
        JOINT lKnee
        {
            OFFSET   0.000000  -0.410000   0.000000
            CHANNELS 3 Xrotation Yrotation Zrotation
            JOINT lAnkle
            {
                OFFSET   0.000000  -0.390000   0.000000
                CHANNELS 3 Xrotation Yrotation Zrotation
                JOINT lToeJoint
                {
                    OFFSET   0.000000  -0.050000   0.130000
                    CHANNELS 3 Xrotation Yrotation Zrotation
                    End Site
                    {
                        OFFSET   0.010000   0.002000   0.060000
                    }
                }
            }
        }
    }
}
MOTION
Frames: 8
Frame Time:   0.008333
 -2.369868   0.900426   4.192161   6.558349   9.042381  -1.545683  -1.155042  10.192947  -0.249335   8.757107   5.699350   0.601523 -11.108088  -4.926872   0.448765   1.321619   2.762880   8.944827   3.282555   7.325535  40.320847  -0.144901  45.048596   0.136876   2.442838   0.492909  -2.646105   6.174000   9.387469  -7.562552  25.175280   7.552555 -40.460991   0.021387 -40.595046  -0.016071   0.029089  -3.724541   3.545698   2.034728  -9.664987   0.547348  55.928064   0.116622   0.026232  -2.218928   0.359815   7.404675 -10.600351   0.019894   0.006666 -46.025188   1.188044 -11.122771  61.461307  -0.064974  -0.082687 -32.596840   1.029943   2.991853  -0.494819  -0.000451  -0.000089
 -2.369815   0.900750   4.204935   5.924610  10.218579  -1.761460  -0.951919   9.886053  -0.052373   8.827963   5.436167   0.633026 -10.933918  -4.910570   0.621424   1.432364   3.100623   9.337992   4.301177   7.497422  41.132917  -0.147256  43.263252   0.137244   2.427132   0.636983  -2.513373   6.046157   9.319097  -7.999140  24.288978   7.065977 -40.764954   0.021328 -41.133696  -0.016441   0.035645  -3.446642   3.829424   2.391217 -10.215689   0.146844  59.798807   0.124468   0.004204  -1.539975   0.307503   7.448046  -9.749544   0.023175   0.000168 -43.261743   0.754311 -11.214468  60.080821  -0.057428  -0.079288 -33.467187   0.924455   3.189415  -0.521287  -0.000313  -0.000315
 -2.369663   0.900333   4.217726   5.324888  11.394666  -1.951341  -0.814719   9.545222   0.142425   8.889861   5.137329   0.666588 -10.752341  -4.891902   0.793722   1.545871   3.425410   9.734602   5.262376   7.666114  41.902705  -0.144091  41.566763   0.133053   2.402915   0.580588  -2.329277   5.865682   9.192521  -8.472566  23.409920   6.545155 -41.083386   0.021309 -41.667776  -0.016470   0.047480  -3.287191   4.060189   2.627478 -10.755764  -0.339272  63.698375   0.129890  -0.017510  -0.906672   0.253885   7.488403  -8.985876   0.025164  -0.005260 -40.467813   0.295201 -11.213504  58.966354  -0.049978  -0.074402 -34.273533   0.826332   3.374614  -0.546408  -0.000189  -0.000484
 -2.369474   0.899139   4.230468   4.798074  12.590179  -2.131302  -0.738400   9.166937   0.325649   8.905353   4.799123   0.695180 -10.584590  -4.874525   0.958708   1.663920   3.717085  10.122394   6.168482   7.828785  42.632339  -0.136744  39.978887   0.125580   2.377315   0.476968  -2.119158   5.654664   9.028431  -8.952400  22.554401   6.018121 -41.402021   0.021102 -42.186634  -0.016229   0.065250  -3.244623   4.237332   2.737437 -11.253013  -0.867384  67.585694   0.133871  -0.036915  -0.316557   0.203010   7.526106  -8.292979   0.026298  -0.009423 -37.705151  -0.182149 -11.126354  58.009311  -0.043321  -0.069295 -35.022736   0.733884   3.547406  -0.566815  -0.000092  -0.000579
 -2.369271   0.897131   4.243119   4.345622  13.810701  -2.304368  -0.709769   8.758074   0.491518   8.879229   4.427578   0.714838 -10.433003  -4.858698   1.114162   1.783700   3.976016  10.490176   7.020940   7.983665  43.317533  -0.126868  38.494996   0.116464   2.352088   0.364529  -1.905541   5.423535   8.837736  -9.421445  21.727633   5.496730 -41.712640   0.020655 -42.686787  -0.015795   0.088200  -3.292010   4.379921   2.742868 -11.705375  -1.420659  71.454064   0.136757  -0.053962   0.232872   0.154951   7.561317  -7.664725   0.026760  -0.012503 -35.000867  -0.665023 -10.962949  57.168325  -0.037581  -0.064307 -35.719648   0.646672   3.708552  -0.582814  -0.000020  -0.000617
 -2.369066   0.894287   4.255648   3.963891  15.056126  -2.471338  -0.716648   8.327834   0.636840   8.820922   4.031474   0.723448 -10.296301  -4.844326   1.259519   1.902682   4.205444  10.831316   7.821526   8.130014  43.955753  -0.115727  37.108700   0.106840   2.327603   0.251191  -1.702082   5.179016   8.628410  -9.870477  20.932114   4.987761 -42.010577   0.019972 -43.166476  -0.015242   0.115581  -3.408180   4.502861   2.665496 -12.114042  -1.988917  75.304859   0.138754  -0.068946   0.744415   0.109565   7.594198  -7.095006   0.026692  -0.014711 -32.374151  -1.143262 -10.734271  56.422342  -0.032704  -0.059512 -36.368330   0.564346   3.858838  -0.595475   0.000029  -0.000618
 -2.368866   0.890592   4.268029   3.649052  16.324118  -2.632739  -0.749062   7.885267   0.760366   8.738987   3.619735   0.720149 -10.172750  -4.831255   1.394797   2.018992   4.409124  11.142931   8.572347   8.267711  44.546683  -0.104216  35.813683   0.097415   2.303936   0.138481  -1.516373   4.926265   8.407006 -10.295031  20.169354   4.495492 -42.293715   0.019086 -43.624762  -0.014635   0.146666  -3.577010   4.615431   2.524377 -12.480903  -2.564328  79.140856   0.139988  -0.082200   1.220769   0.066684   7.624894  -6.578134   0.026212  -0.016232 -29.839237  -1.609189 -10.451761  55.757140  -0.028594  -0.054927 -36.972402   0.486595   3.999019  -0.605882   0.000062  -0.000599
 -2.368723   0.886364   4.279653   3.476835  17.675296  -2.670350  -0.720870   7.294807   0.777498   8.677280   3.312666   0.548072 -10.233942  -4.713678   1.536960   1.981392   4.497913  11.427131   9.189701   8.420376  45.163339  -0.094868  34.279963   0.090099   2.327126   0.164411  -1.255086   4.777622   8.186586 -10.670785  18.979281   3.895106 -42.508999   0.020679 -44.678061  -0.018954   0.180253  -3.188353   4.690295   1.853379 -13.081693  -3.444567  83.144401   0.134607  -0.099152   1.554415   0.130101   7.738500  -6.035803   0.024694  -0.017911 -27.238721  -2.246933 -10.295742  54.546077  -0.026470  -0.056226 -37.796027   0.281962   4.392169  -0.633886   0.000223  -0.000705
